<?xml version="1.0" encoding="utf-8"?>
<!-- Generator: Adobe Illustrator 23.0.1, SVG Export Plug-In . SVG Version: 6.00 Build 0)  -->
<svg version="1.1" xmlns="http://www.w3.org/2000/svg" xmlns:xlink="http://www.w3.org/1999/xlink" x="0px" y="0px"
	 viewBox="0 0 792 612" style="enable-background:new 0 0 792 612;" xml:space="preserve">
<style type="text/css">
	.st0{display:none;}
	.st1{display:inline;}
	.st2{fill:#008080;}
	.st3{fill:#004080;fill-opacity:0.9842;}
	.st4{font-family:'ArialMT';}
	.st5{font-size:79.3964px;}
	.st6{letter-spacing:7;}
	.st7{display:inline;fill:#008080;}
	.st8{display:inline;fill:#004080;}
	.st9{font-family:'BerlinSansFBDemi-Bold';}
	.st10{font-size:90px;}
	.st11{fill:#004080;}
</style>
<g id="svg8" inkscape:version="0.92.3 (2405546, 2018-03-11)" sodipodi:docname="Mi-Logo.svg" xmlns:cc="http://creativecommons.org/ns#" xmlns:dc="http://purl.org/dc/elements/1.1/" xmlns:inkscape="http://www.inkscape.org/namespaces/inkscape" xmlns:rdf="http://www.w3.org/1999/02/22-rdf-syntax-ns#" xmlns:sodipodi="http://sodipodi.sourceforge.net/DTD/sodipodi-0.dtd" xmlns:svg="http://www.w3.org/2000/svg" class="st0">
	
		<sodipodi:namedview  bordercolor="#666666" borderopacity="1.0" id="base" inkscape:current-layer="layer1" inkscape:cx="251.15546" inkscape:cy="361.61352" inkscape:document-units="mm" inkscape:guide-bbox="true" inkscape:object-nodes="true" inkscape:object-paths="true" inkscape:pageopacity="0.0" inkscape:pageshadow="2" inkscape:snap-intersection-paths="true" inkscape:snap-midpoints="true" inkscape:snap-smooth-nodes="true" inkscape:window-height="704" inkscape:window-maximized="1" inkscape:window-width="1366" inkscape:window-x="0" inkscape:window-y="0" inkscape:zoom="0.35" pagecolor="#ffffff" showborder="true" showgrid="true" showguides="true" units="in">
		
			<inkscape:grid  color="#ff3f42" empcolor="#ff3f42" empopacity="0.1254902" empspacing="5" enabled="false" gridanglex="30" gridanglez="30" id="grid817" opacity="0.1254902" spacingy="20" type="axonomgrid" units="mm">
			</inkscape:grid>
		<inkscape:grid  enabled="false" id="grid819" spacingx="2.6458333" spacingy="2.6458333" type="xygrid" visible="true">
			</inkscape:grid>
	</sodipodi:namedview>
	<g id="layer1" transform="translate(0,-81.099983)" inkscape:groupmode="layer" inkscape:label="Capa 1" class="st1">
		<path id="path850" inkscape:connector-curvature="0" inkscape:export-xdpi="96" inkscape:export-ydpi="96" class="st2" d="
			M350.5,191.7L154.1,305.1l196.4,113.4l98.2-56.7l-98.2-56.7l49.1-28.3l-49.1-28.3l49.1-28.3L350.5,191.7z"/>
		<path id="path854" inkscape:connector-curvature="0" inkscape:export-xdpi="96" inkscape:export-ydpi="96" class="st3" d="
			M448.7,191.7l-98.2,56.7l98.2,56.7l-49.1,28.3l49.1,28.3l-49.1,28.3l49.1,28.3l196.4-113.4L448.7,191.7z"/>
		<text transform="matrix(1 0 0 1 149.9453 524.9291)" class="st4 st5 st6">Maco Chave</text>
	</g>
</g>
<g id="Logo" class="st0">
	<polygon class="st7" points="445.2,299.8 346.8,356.5 150,243.1 346.8,129.7 388.6,153.8 332,186.4 388.6,219 346.8,243.1 	"/>
	<polygon class="st8" points="642,243.1 445.2,356.5 403.4,332.4 460,299.8 403.4,267.2 445.2,243.1 346.8,186.4 445.2,129.7 	"/>
	<text transform="matrix(1.0092 0 0 1 158.0248 482.2801)" class="st1 st9 st10">Maco Chave</text>
</g>
<g id="Favicon">
	<polygon class="st2" points="466.1,402.5 325.9,499 45.6,306 325.9,113 385.5,154 304.9,209.5 385.5,265 325.9,306 	"/>
	<polygon class="st11" points="746.4,306 466.1,499 406.5,458 487.1,402.5 406.5,347 466.1,306 325.9,209.5 466.1,113 	"/>
</g>
</svg>
